# AST/ASF file generated using VICON BodyLanguage
# -----------------------------------------------
:version 1.10
:name VICON
:units
  mass 1.0
  length 0.45
  angle deg
:documentation
   .ast/.asf automatically generated from VICON data using
   VICON BodyBuilder and BodyLanguage model FoxedUp or BRILLIANT.MOD
:root
   order TX TY TZ RX RY RZ
   axis XYZ
   position 0 0 0  
   orientation 0 0 0 
:bonedata
  begin
     id 1 
     name lhipjoint
     direction 0.734343 -0.627749 0.258209 
     length 2.5437 
     axis 0 0 0  XYZ
  end
  begin
     id 2 
     name lfemur
     direction 0.34202 -0.939693 0  
     length 6.7391  
     axis 0 0 20  XYZ
    dof rx ry rz
    limits (-160.0 20.0)
           (-70.0 70.0)
           (-60.0 70.0)
  end
  begin
     id 3 
     name ltibia
     direction 0.34202 -0.939693 0   
     length 7.21536   
     axis 0 0 20   XYZ
    dof rx
    limits (-10.0 170.0)
  end
  begin
     id 4 
     name lfoot
     direction 0.0489572 -0.134509 0.989702   
     length 1.61313   
     axis -90 7.62852e-016 20   XYZ
    dof rx rz
    limits (-45.0 90.0)
           (-70.0 20.0)
  end
  begin
     id 5 
     name ltoes
     direction 1.53451e-011 -4.21692e-011 1   
     length 0.823104   
     axis -90 7.62852e-016 20   XYZ
    dof rx
    limits (-90.0 20.0)
  end
  begin
     id 6 
     name rhipjoint
     direction -0.746398 -0.615468 0.253157   
     length 2.59446  
     axis 0 0 0  XYZ 
  end
  begin
     id 7 
     name rfemur
     direction -0.34202 -0.939693 0   
     length 6.7075   
     axis 0 0 -20   XYZ
    dof rx ry rz
    limits (-160.0 20.0)
           (-70.0 70.0)
           (-70.0 60.0)
  end
  begin
     id 8 
     name rtibia
     direction -0.34202 -0.939693 0   
     length 7.27262   
     axis 0 0 -20   XYZ
    dof rx
    limits (-10.0 170.0)
 end
 begin
     id 9 
     name rfoot
     direction -0.0455203 -0.125066 0.991104   
     length 1.91095  
     axis -90 -7.62852e-016 -20   XYZ
    dof rx rz
    limits (-45.0 90.0)
           (-20.0 70.0)
  end
  begin
     id 10 
     name rtoes
     direction -1.53601e-011 -4.21913e-011 1   
     length 0.969037   
     axis -90 -7.62852e-016 -20   XYZ
    dof rx
    limits (-90.0 20.0)
  end
  begin
     id 11 
     name lowerback
     direction 0.0181546 0.999122 -0.0377542   
     length 1.99916   
     axis 0 0 0   XYZ
    dof rx ry rz
    limits (-20.0 45.0)
           (-30.0 30.0)
           (-30.0 30.0)
  end
  begin
     id 12 
     name upperback
     direction 0.0203486 0.99589 0.0882534   
     length 1.951   
     axis 0 0 0   XYZ
    dof rx ry rz
    limits (-20.0 45.0)
           (-30.0 30.0)
           (-30.0 30.0)
  end
  begin
     id 13 
     name thorax
     direction 0.0131685 0.994241 0.106355   
     length 1.97461   
     axis 0 0 0   XYZ
    dof rx ry rz
    limits (-20.0 45.0)
           (-30.0 30.0)
           (-30.0 30.0)
  end
  begin
     id 14 
     name lowerneck
     direction -0.0281395 0.999325 0.023617   
     length 1.7959   
     axis 0 0 0   XYZ
    dof rx ry rz
    limits (-20.0 45.0)
           (-30.0 30.0)
           (-30.0 30.0)
  end
  begin
     id 15 
     name upperneck
     direction 0.0288721 0.991984 -0.123019   
     length 1.79917   
     axis 0 0 0   XYZ
    dof rx ry rz
    limits (-20.0 45.0)
           (-30.0 30.0)
           (-30.0 30.0)
  end
  begin
     id 16
     name head
     direction 0.0133797 0.998944 -0.0439492  
     length 1.80902  
     axis 0 0 0   XYZ
    dof rx ry rz
    limits (-20.0 45.0)
           (-30.0 30.0)
           (-30.0 30.0)
  end
  begin
     id 17 
     name lclavicle
     direction 0.919195 0.377107 0.113449  
     length 3.17815  
     axis 0 0 0   XYZ
    dof ry rz
    limits (-20.0 10.0)
           (0.0 20.0)
  end
  begin
     id 18 
     name lhumerus
     direction 1 -4.48959e-011 2.13129e-027   
     length 4.84137   
     axis 180 -30 -90   XYZ
    dof rx ry rz
    limits (-60.0 90.0)
           (-90.0 90.0)
           (-90.0 90.0)
  end
  begin
     id 19
     name lradius
     direction 1 -4.48957e-011 -6.30627e-028   
     length 3.2452   
     axis 180 -30 -90   XYZ
    dof rx
    limits (-10.0 170.0)
  end
  begin
     id 20
     name lwrist
     direction 1 -4.4901e-011 9.13299e-027   
     length 1.6226   
     axis -6.84618e-015 90 90   XYZ
    dof ry
    limits (-180.0 0.0)
 end
  begin
     id 21 
     name lhand
     direction 1 -4.48816e-011 1.82293e-026   
     length 0.521221   
     axis -1.16502e-014 90 90   XYZ
    dof rx rz
    limits (-90.0 90.0)
           (-45.0 45.0)
  end
  begin
     id 22 
     name lfingers
     direction 1 -4.49108e-011 3.65687e-026   
     length 0.420221   
     axis -2.33008e-014 90 90   XYZ
    dof rx
    limits (0.0 90.0)
  end
  begin
     id 23
     name lthumb
     direction 0.707107 -6.34943e-011 0.707107   
     length 0.603356   
     axis -90 45 5.69224e-014   XYZ
    dof rx rz
    limits (-45.0 45.0)
           (-45.0 45.0)
  end
  begin
     id 24 
     name rclavicle
     direction -0.90847 0.38596 0.160368   
     length 3.12973  
     axis 0 0 0   XYZ 
    dof ry rz
    limits (-10.0 20.0)
           (-20.0 0.0)
  end
  begin
     id 25 
     name rhumerus
     direction -1 -4.48974e-011 4.47268e-028  
     length 4.72284   
     axis 180 30 90   XYZ
    dof rx ry rz
    limits (-90.0 60.0)
           (-90.0 90.0)
           (-90.0 90.0)
  end
  begin
     id 26 
     name rradius
     direction -1 -4.48969e-011 3.43203e-027   
     length 3.23459   
     axis 180 30 90   XYZ
    dof rx
    limits (-10.0 170.0)
  end
  begin
     id 27 
     name rwrist
     direction -1 -4.48969e-011 9.12911e-027   
     length 1.6173   
     axis -6.84618e-015 -90 -90   XYZ
    dof ry
    limits (-180.0 0.0)
  end
  begin
     id 28
     name rhand
     direction -1 -4.49194e-011 1.83006e-026   
     length 0.307416   
     axis -1.16502e-014 -90 -90   XYZ
    dof rx rz
    limits (-90.0 90.0)
           (-45.0 45.0)
  end
  begin
     id 29
     name rfingers
     direction -1 -4.48423e-011 3.63103e-026   
     length 0.247847   
     axis -2.33008e-014 -90 -90   XYZ
    dof rx
    limits (0.0 90.0)
  end
  begin
     id 30
     name rthumb
     direction -0.707107 -6.34802e-011 0.707107   
     length 0.35586   
     axis -90 -45 -5.69224e-014   XYZ
    dof rx rz
    limits (-45.0 45.0)
           (-45.0 45.0)
  end
:hierarchy
  begin
    root lhipjoint rhipjoint lowerback
    lhipjoint lfemur
    lfemur ltibia
    ltibia lfoot
    lfoot ltoes
    rhipjoint rfemur
    rfemur rtibia
    rtibia rfoot
    rfoot rtoes
    lowerback upperback
    upperback thorax
    thorax lowerneck lclavicle rclavicle
    lowerneck upperneck
    upperneck head
    lclavicle lhumerus
    lhumerus lradius
    lradius lwrist
    lwrist lhand lthumb
    lhand lfingers
    rclavicle rhumerus
    rhumerus rradius
    rradius rwrist
    rwrist rhand rthumb
    rhand rfingers
  end

#!OML:ASF H:\Terrain\Patient Classification 1\Animal1\Tuesday\Animal1.ASF
:FULLY-SPECIFIED
:DEGREES
529
root 8.78992 14.2483 -21.4838 14.0678 -49.735 7.00057
lowerback 34.2739 2.50522 1.98798
upperback 6.3405 3.09231 -2.97337
thorax -10.1683 1.22783 -5.39968
lowerneck -9.40746 10.4291 0.761141
upperneck -23.434 12.3571 -11.3802
head -4.7792 6.59369 -3.78167
rclavicle -5.80451e-014 -3.97569e-015
rhumerus -18.4061 -7.82803 -71.6908
rradius 72.609
rwrist 1.34134
rhand -20.798 25.4823
rfingers 7.12502
rthumb 5.56938 -4.42447
lclavicle -5.80451e-014 -3.97569e-015
lhumerus -36.722 21.9391 65.5795
lradius 75.1167
lwrist -29.7376
lhand 5.76971 36.7789
lfingers 7.12502
lthumb 31.1039 64.1605
rfemur -51.1894 6.53871 22.4759
rtibia 73.9622
rfoot -24.9128 -19.4257
rtoes -9.53019
lfemur -68.146 -17.2533 -11.8997
ltibia 55.6114
lfoot -11.6224 -11.3728
ltoes 5.44906
530
root 8.7849 14.2597 -21.4709 14.0112 -49.831 7.08613
lowerback 34.2865 2.49828 1.97587
upperback 6.36224 3.07757 -2.97375
thorax -10.1508 1.22158 -5.38731
lowerneck -9.35995 10.4611 0.619101
upperneck -23.3574 12.422 -11.3347
head -4.77294 6.6356 -3.74514
rclavicle -4.45278e-014 -3.49861e-014
rhumerus -18.5388 -7.68796 -71.6121
rradius 72.7472
rwrist 1.23407
rhand -20.5754 26.1595
rfingers 7.12502
rthumb 5.78427 -3.74152
lclavicle -4.45278e-014 -3.49861e-014
lhumerus -36.9041 21.8864 65.567
lradius 75.2229
lwrist -29.595
lhand 5.72514 36.6704
lfingers 7.12502
lthumb 31.0614 64.0602
rfemur -50.9873 6.41051 22.445
rtibia 73.6804
rfoot -24.2452 -19.9967
rtoes -11.8825
lfemur -67.968 -17.274 -11.9404
ltibia 55.402
lfoot -11.4191 -11.4856
ltoes 6.44938
531
root 8.77823 14.2671 -21.4552 13.8209 -50.0067 7.31871
lowerback 34.242 2.52798 1.87875
upperback 6.4419 3.06651 -3.05138
thorax -10.0477 1.22172 -5.40888
lowerneck -9.37102 10.4689 0.533942
upperneck -23.2742 12.4596 -11.2355
head -4.75727 6.6546 -3.69762
rclavicle -3.33958e-014 5.56597e-015
rhumerus -18.781 -7.56493 -71.5497
rradius 73.0096
rwrist 1.12568
rhand -20.3555 26.496
rfingers 7.12502
rthumb 5.99657 -3.3991
lclavicle -3.33958e-014 5.56597e-015
lhumerus -36.9557 21.7325 65.5465
lradius 75.2765
lwrist -29.5329
lhand 5.66444 36.5843
lfingers 7.12502
lthumb 31.0035 63.9851
rfemur -50.6383 6.28773 22.414
rtibia 73.2344
rfoot -20.4513 -23.9657
rtoes -23.9951
lfemur -67.7984 -17.3938 -12.0393
ltibia 55.2738
lfoot -11.5286 -11.2057
ltoes 5.0429
532
root 8.77379 14.2745 -21.4445 13.9501 -50.0036 7.38611
lowerback 34.0983 2.52814 1.85142
upperback 6.47384 3.0564 -3.06354
thorax -9.95887 1.22124 -5.39684
lowerneck -9.53176 10.4584 0.491747
upperneck -23.2 12.4627 -11.168
head -4.71761 6.65063 -3.65833
rclavicle -3.57812e-014 3.89618e-014
rhumerus -18.0364 -7.60832 -71.6599
rradius 72.2635
rwrist 1.24133
rhand -20.6711 26.5549
rfingers 7.12502
rthumb 5.69194 -3.34869
lclavicle -3.57812e-014 3.89618e-014
lhumerus -36.9009 21.6524 65.5613
lradius 75.2718
lwrist -29.5647
lhand 5.65611 36.6142
lfingers 7.12502
lthumb 30.9956 64.0165
rfemur -50.5696 6.1476 22.429
rtibia 72.8171
rfoot -18.0005 -25.8754
rtoes -28.7228
lfemur -67.9314 -17.4922 -12.0014
ltibia 55.1875
lfoot -11.6157 -10.9901
ltoes 3.93591
533
root 8.77096 14.2768 -21.4402 14.4741 -49.8623 7.09959
lowerback 33.8764 2.47209 2.03818
upperback 6.45679 3.06394 -2.99775
thorax -9.88543 1.22435 -5.42229
lowerneck -9.71117 10.465 0.38515
upperneck -23.1477 12.4964 -11.0706
head -4.68775 6.6653 -3.60048
rclavicle -5.96354e-014 1.98785e-014
rhumerus -17.8051 -7.77616 -71.7623
rradius 72.0627
rwrist 1.31829
rhand -20.8982 26.593
rfingers 7.12502
rthumb 5.4726 -3.31633
lclavicle -5.96354e-014 1.98785e-014
lhumerus -36.8808 21.6917 65.5848
lradius 75.2729
lwrist -29.7673
lhand 5.83558 36.6603
lfingers 7.12502
lthumb 31.1666 64.0299
rfemur -50.7413 6.04417 22.6356
rtibia 72.4738
rfoot -18.8539 -25.4701
rtoes -27.3548
lfemur -68.2818 -17.4749 -11.6978
ltibia 55.0959
lfoot -11.513 -11.0411
ltoes 3.77451
534
root 8.76636 14.2877 -21.4332 14.8106 -49.8718 6.9214
lowerback 33.6925 2.43609 2.18565
upperback 6.46495 3.06511 -3.04379
thorax -9.79669 1.22538 -5.54447
lowerneck -9.79988 10.496 0.446415
upperneck -23.1108 12.5519 -10.9976
head -4.66121 6.68155 -3.58022
rclavicle -3.33958e-014 5.56597e-014
rhumerus -18.0442 -7.88246 -71.8472
rradius 72.294
rwrist 1.33142
rhand -20.8091 26.6688
rfingers 7.12502
rthumb 5.55862 -3.23833
lclavicle -3.33958e-014 5.56597e-014
lhumerus -36.8389 21.6975 65.4975
lradius 75.2598
lwrist -29.9703
lhand 5.80155 36.7679
lfingers 7.12502
lthumb 31.1342 64.1437
rfemur -50.7755 6.0663 22.7113
rtibia 72.1455
rfoot -19.6068 -25.0159
rtoes -26.0522
lfemur -68.4046 -17.4835 -11.461
ltibia 54.9552
lfoot -11.4103 -11.0019
ltoes 3.5758
535
root 8.76124 14.3085 -21.424 14.9556 -49.9143 6.90768
lowerback 33.6349 2.41963 2.2281
upperback 6.44348 3.05244 -3.10519
thorax -9.79549 1.21889 -5.62755
lowerneck -9.76181 10.5232 0.61729
upperneck -23.1521 12.5678 -11.0745
head -4.66041 6.68179 -3.63227
rclavicle -4.45278e-014 1.74931e-014
rhumerus -18.8506 -7.70379 -71.7717
rradius 73.0806
rwrist 1.21521
rhand -21.0237 26.2711
rfingers 7.12502
rthumb 5.35147 -3.64136
lclavicle -4.45278e-014 1.74931e-014
lhumerus -36.8296 21.6772 65.4216
lradius 75.2177
lwrist -30.1056
lhand 5.51791 36.9718
lfingers 7.12502
lthumb 30.8638 64.3992
rfemur -50.7025 6.04979 22.6555
rtibia 71.8216
rfoot -19.7559 -24.8209
rtoes -25.9562
lfemur -68.3654 -17.5502 -11.3721
ltibia 54.7731
lfoot -11.3518 -10.9218
ltoes 3.41757
536
root 8.75681 14.3232 -21.419 15.3832 -49.79 6.54354
lowerback 33.6886 2.34275 2.47
upperback 6.3702 3.05074 -3.04022
thorax -9.8888 1.20951 -5.69267
lowerneck -9.73384 10.5599 0.55939
upperneck -23.1779 12.6259 -11.0483
head -4.67641 6.71541 -3.61822
rclavicle -4.37326e-014 9.93923e-014
rhumerus -18.2475 -7.70319 -71.9102
rradius 72.4573
rwrist 1.32777
rhand -20.9812 26.1319
rfingers 7.12502
rthumb 5.39246 -3.77954
lclavicle -4.37326e-014 9.93923e-014
lhumerus -36.8476 21.7206 65.4356
lradius 75.1094
lwrist -30.2746
lhand 5.35238 37.0192
lfingers 7.12502
lthumb 30.706 64.4763
rfemur -50.654 5.97096 22.9014
rtibia 71.5204
rfoot -19.848 -24.7086
rtoes -25.9813
lfemur -68.4256 -17.5179 -11.0899
ltibia 54.607
lfoot -11.1351 -11.1739
ltoes 5.72466
537
root 8.74976 14.3369 -21.4157 15.831 -49.6239 5.92786
lowerback 33.9173 2.23062 2.86435
upperback 6.30492 3.06416 -2.92017
thorax -10.0337 1.20045 -5.79153
lowerneck -9.60021 10.5563 0.423342
upperneck -23.1789 12.6547 -10.8842
head -4.71908 6.73515 -3.55673
rclavicle 3.26007e-014 -4.45278e-014
rhumerus -18.1036 -7.54046 -71.8312
rradius 72.1536
rwrist 1.16567
rhand -20.5359 26.5389
rfingers 7.12502
rthumb 5.82241 -3.36111
lclavicle 3.26007e-014 -4.45278e-014
lhumerus -36.9155 21.7437 65.4066
lradius 75.0182
lwrist -30.4207
lhand 5.51701 37.0837
lfingers 7.12502
lthumb 30.863 64.5112
rfemur -50.4196 6.03028 23.2946
rtibia 71.2758
rfoot -21.4639 -23.379
rtoes -22.3513
lfemur -68.3254 -17.3361 -10.7913
ltibia 54.4992
lfoot -11.0216 -11.4396
ltoes 6.57247
538
root 8.74193 14.3511 -21.4112 16.1301 -49.5944 5.62251
lowerback 33.9469 2.1903 3.04779
upperback 6.25315 3.08581 -2.87209
thorax -10.093 1.20353 -5.84998
lowerneck -9.40622 10.5227 0.46695
upperneck -23.1629 12.6136 -10.847
head -4.74534 6.71378 -3.56262
rclavicle 3.33958e-014 -7.95139e-016
rhumerus -18.2192 -7.38533 -71.7855
rradius 72.0983
rwrist 1.16584
rhand -20.4947 26.6865
rfingers 7.12502
rthumb 5.86219 -3.2124
lclavicle 3.33958e-014 -7.95139e-016
lhumerus -36.95 21.6801 65.3367
lradius 74.9233
lwrist -30.4949
lhand 5.70555 37.0801
lfingers 7.12502
lthumb 31.0427 64.4734
rfemur -50.3951 6.23039 23.3586
rtibia 71.1265
rfoot -24.4058 -20.4125
rtoes -12.7686
lfemur -68.2936 -17.0754 -10.7245
ltibia 54.4366
lfoot -11.1396 -11.5826
ltoes 5.12705
539
root 8.73784 14.3545 -21.4059 16.4103 -49.6458 5.60398
lowerback 33.7068 2.20877 3.04268
upperback 6.24754 3.1051 -2.88603
thorax -10.0039 1.21682 -5.86156
lowerneck -9.42188 10.552 0.651946
upperneck -23.0676 12.6248 -11.0306
head -4.68356 6.71386 -3.63854
rclavicle -7.95139e-016 1.11319e-014
rhumerus -18.1516 -7.4316 -71.8918
rradius 72.0559
rwrist 1.29975
rhand -20.7815 26.3516
rfingers 7.12502
rthumb 5.58529 -3.55477
lclavicle -7.95139e-016 1.11319e-014
lhumerus -36.8596 21.6349 65.3344
lradius 74.8553
lwrist -30.5678
lhand 5.74947 37.1394
lfingers 7.12502
lthumb 31.0846 64.5247
rfemur -50.609 6.34456 23.2926
rtibia 70.9619
rfoot -24.8458 -20.0213
rtoes -10.7861
lfemur -68.5258 -16.8643 -10.7553
ltibia 54.4007
lfoot -11.2372 -11.6722
ltoes 3.93024
